<?xml version="1.0" standalone="no"?>
<!DOCTYPE svg PUBLIC "-//W3C//DTD SVG 20010904//EN"
 "http://www.w3.org/TR/2001/REC-SVG-20010904/DTD/svg10.dtd">
<svg version="1.0" xmlns="http://www.w3.org/2000/svg"
 width="500.000000pt" height="500.000000pt" viewBox="0 0 500.000000 500.000000"
 preserveAspectRatio="xMidYMid meet">
<metadata>
Created by potrace 1.14, written by Peter Selinger 2001-2017
</metadata>
<g transform="translate(0.000000,500.000000) scale(0.100000,-0.100000)"
fill="#000000" stroke="none">
<path d="M2215 3978 c-32 -73 -68 -155 -80 -183 -18 -40 -131 -296 -220 -500
-7 -16 -24 -56 -39 -88 -14 -32 -26 -60 -26 -62 0 -3 -13 -33 -29 -67 -16 -35
-52 -117 -81 -183 -28 -66 -58 -133 -65 -150 -8 -16 -48 -109 -91 -205 -42
-96 -85 -196 -96 -221 -16 -36 -35 -56 -82 -87 -33 -23 -79 -57 -101 -77 -45
-40 -139 -90 -154 -81 -6 4 -5 19 2 41 22 72 -27 145 -98 145 -129 0 -158
-204 -35 -247 82 -28 140 -11 275 81 98 67 134 82 117 49 -13 -25 -30 -62
-207 -468 -86 -198 -167 -380 -178 -405 -12 -25 -22 -47 -22 -50 -2 -6 -12
-29 -69 -158 l-45 -102 225 0 224 0 26 58 c15 31 39 85 55 120 16 35 29 65 29
67 0 3 14 35 31 72 17 38 56 124 86 193 30 69 64 143 74 166 49 110 245 556
265 604 13 30 26 54 31 53 4 -1 12 -18 18 -38 l10 -37 119 137 c84 97 121 133
126 124 7 -12 25 -88 36 -148 1 -7 8 -35 14 -61 l11 -48 42 46 c23 26 60 67
83 92 117 130 133 145 132 125 -1 -19 12 -198 17 -240 1 -11 3 -33 4 -49 1
-28 2 -27 72 40 40 38 89 85 109 104 21 19 56 53 80 75 l42 40 -6 -45 c-3 -25
-8 -76 -11 -115 -3 -38 -8 -87 -11 -107 -3 -21 -3 -38 0 -38 3 0 51 29 106 65
56 36 105 63 110 60 5 -3 15 -27 24 -53 12 -35 13 -57 6 -87 -13 -56 -13 -57
17 -38 14 10 28 13 30 8 2 -6 115 -264 251 -575 l248 -565 242 -3 c133 -1 242
0 242 3 0 4 -9 25 -19 48 -10 23 -67 152 -126 287 -59 135 -168 382 -241 549
-74 168 -134 308 -134 313 0 16 18 7 122 -61 157 -104 248 -124 317 -73 56 41
65 143 16 199 -20 24 -31 28 -73 28 -39 0 -56 -5 -76 -24 -31 -29 -43 -83 -27
-118 8 -17 8 -30 2 -36 -18 -18 -77 13 -167 87 -49 40 -108 83 -130 94 -55 28
-70 64 -51 120 l14 41 -26 -14 -26 -13 -64 146 c-36 81 -82 185 -103 230 -21
46 -38 86 -38 88 0 3 -187 429 -210 479 -26 54 -220 497 -220 501 0 2 -13 32
-29 66 -16 35 -43 95 -59 133 l-31 70 -224 3 -224 2 -58 -132z m380 -683 c48
-110 102 -233 121 -273 19 -41 34 -78 34 -82 0 -5 7 -21 15 -37 8 -15 24 -50
36 -78 11 -27 29 -68 39 -90 57 -125 70 -156 70 -164 0 -8 -162 -160 -186
-174 -11 -6 -14 1 -15 30 -1 21 -2 49 -4 63 -1 14 -5 77 -9 140 -4 63 -9 116
-10 118 -2 1 -32 -30 -67 -70 -35 -40 -69 -78 -75 -84 -6 -7 -39 -46 -75 -88
-70 -84 -68 -84 -83 4 -6 38 -39 195 -42 198 -2 3 -47 -43 -97 -102 -10 -12
-28 -32 -40 -46 -12 -14 -44 -51 -71 -83 -27 -32 -52 -54 -56 -50 -4 4 -13 35
-20 69 -13 65 -12 69 64 236 13 29 33 73 44 98 11 25 54 122 95 216 84 190
181 410 204 464 l15 34 13 -24 c7 -14 52 -115 100 -225z"/>
</g>
</svg>
